<svg width="307" height="40" viewBox="0 0 307 40" fill="none" xmlns="http://www.w3.org/2000/svg">
<path d="M12.4878 7.01339C15.3479 5.35982 18.6741 4.69712 21.9496 5.12825C25.2252 5.55938 28.2666 7.0602 30.6014 9.39756L22.1144 17.8846M8.00436 11.002H8.01935M5.44026 16.4301C4.8781 18.7199 4.86383 21.11 5.39861 23.4063C5.9334 25.7026 7.00216 27.8405 8.51813 29.6463C10.0341 31.4521 11.9546 32.875 14.1236 33.7994C16.2926 34.7239 18.649 35.1238 21.0016 34.9667C23.3541 34.8096 25.6365 34.1 27.6633 32.8954C29.6902 31.6908 31.4044 30.0252 32.6668 28.0339C33.9293 26.0425 34.7043 23.7816 34.929 21.4345C35.1538 19.0875 34.8219 16.7205 33.9603 14.5258M26.3579 13.6411C25.495 12.7731 24.464 12.0904 23.3282 11.6346C22.1923 11.1788 20.9753 10.9596 19.7518 10.9903C18.5283 11.0211 17.3239 11.3011 16.2123 11.8134C15.1007 12.3256 14.1054 13.0593 13.2871 13.9695C12.4688 14.8797 11.8449 15.9472 11.4535 17.1069C11.062 18.2665 10.9113 19.4938 11.0105 20.7137C11.1098 21.9336 11.4568 23.1204 12.0306 24.2016C12.6043 25.2827 13.3925 26.2354 14.3471 27.0014M20.0002 28.9957H20.0151M28.982 19.489C29.0636 20.9156 28.8042 22.341 28.2253 23.6474C27.6464 24.9538 26.7647 26.1035 25.6532 27.0014M22.9991 19.9988C22.9991 21.6551 21.6564 22.9978 20.0002 22.9978C18.3439 22.9978 17.0012 21.6551 17.0012 19.9988C17.0012 18.3426 18.3439 16.9999 20.0002 16.9999C21.6564 16.9999 22.9991 18.3426 22.9991 19.9988Z" stroke="white" style="stroke:white;stroke-opacity:1;" stroke-width="3" stroke-linecap="square" stroke-linejoin="round"/>
<path d="M55.16 24.88C55.2667 26.2667 55.8267 27.3867 56.84 28.24C57.88 29.0667 59.2533 29.48 60.96 29.48C62.3733 29.48 63.52 29.1867 64.4 28.6C65.3067 27.9867 65.76 27.1467 65.76 26.08C65.76 25.3333 65.5067 24.7467 65 24.32C64.52 23.8667 63.8267 23.52 62.92 23.28C62.04 23.0133 60.6667 22.6933 58.8 22.32C56.96 21.9733 55.4133 21.5333 54.16 21C52.9067 20.44 51.88 19.6267 51.08 18.56C50.3067 17.4667 49.92 16.0267 49.92 14.24C49.92 12.6133 50.36 11.16 51.24 9.88C52.1467 8.6 53.3867 7.6 54.96 6.88C56.56 6.13333 58.36 5.76 60.36 5.76C62.4133 5.76 64.2533 6.14667 65.88 6.92C67.5333 7.66666 68.8267 8.70666 69.76 10.04C70.72 11.3733 71.2133 12.88 71.24 14.56H65.36C65.2267 13.36 64.72 12.4 63.84 11.68C62.96 10.9333 61.8 10.56 60.36 10.56C59.0267 10.56 57.96 10.84 57.16 11.4C56.36 11.96 55.96 12.76 55.96 13.8C55.96 14.5467 56.2 15.1333 56.68 15.56C57.16 15.96 57.84 16.2933 58.72 16.56C59.6 16.8 60.96 17.0933 62.8 17.44C64.6667 17.7867 66.24 18.2267 67.52 18.76C68.8 19.2667 69.8267 20.0533 70.6 21.12C71.4 22.16 71.8 23.56 71.8 25.32C71.8 27.0267 71.3333 28.56 70.4 29.92C69.4667 31.2533 68.16 32.3067 66.48 33.08C64.8267 33.8533 62.96 34.24 60.88 34.24C58.64 34.24 56.64 33.84 54.88 33.04C53.1467 32.2133 51.7867 31.08 50.8 29.64C49.8133 28.2 49.3067 26.5867 49.28 24.8L55.16 24.88ZM86.8 6C88.8 6 90.56 6.38667 92.08 7.16C93.6267 7.90667 94.8133 8.98667 95.64 10.4C96.4933 11.8133 96.92 13.4533 96.92 15.32C96.92 17.1867 96.4933 18.8267 95.64 20.24C94.8133 21.6267 93.6267 22.7067 92.08 23.48C90.56 24.2267 88.8 24.6 86.8 24.6H81.4V34H75.4V6H86.8ZM81.4 19.6H86.24C87.6533 19.6 88.7733 19.2133 89.6 18.44C90.4267 17.6667 90.84 16.6267 90.84 15.32C90.84 13.9867 90.4267 12.9333 89.6 12.16C88.7733 11.3867 87.6533 11 86.24 11H81.4V19.6ZM111.683 6C113.709 6 115.496 6.38667 117.043 7.16C118.616 7.90667 119.829 8.98667 120.683 10.4C121.536 11.8133 121.963 13.4533 121.963 15.32C121.963 17.1067 121.536 18.6933 120.683 20.08C119.829 21.44 118.656 22.48 117.163 23.2L122.683 34H116.043L111.363 24.6H106.283V34H100.283V6H111.683ZM106.283 19.6H111.203C112.616 19.6 113.736 19.2133 114.563 18.44C115.416 17.6667 115.843 16.6267 115.843 15.32C115.843 13.9867 115.416 12.9333 114.563 12.16C113.736 11.3867 112.616 11 111.203 11H106.283V19.6ZM125.947 6H131.947V34H125.947V6ZM135.169 6H157.329V11.16H149.249V34H143.249V11.16H135.169V6ZM160.595 6H179.395V11.16H166.595V17.44H176.995V22.36H166.595V28.84H179.835V34H160.595V6ZM194.487 6C196.327 6 197.954 6.36 199.367 7.08C200.78 7.77333 201.874 8.77333 202.647 10.08C203.42 11.36 203.807 12.8667 203.807 14.6C203.807 16.5467 203.26 18.24 202.167 19.68C201.1 21.0933 199.66 22.0533 197.847 22.56L204.127 34H200.207L194.407 23.24H187.247V34H183.767V6H194.487ZM187.247 20.04H194.207C196.047 20.04 197.514 19.5467 198.607 18.56C199.7 17.5733 200.247 16.2533 200.247 14.6C200.247 12.9733 199.7 11.6667 198.607 10.68C197.514 9.69333 196.06 9.2 194.247 9.2H187.247V20.04ZM205.393 34L216.073 6H220.193L230.833 34H227.113L224.153 26.44H211.953L208.993 34H205.393ZM212.993 23.28H223.113L218.033 9.8L212.993 23.28ZM234.001 6H242.281C245.161 6 247.655 6.58667 249.761 7.76C251.895 8.90667 253.521 10.5333 254.641 12.64C255.788 14.7467 256.361 17.2 256.361 20C256.361 22.7733 255.788 25.2267 254.641 27.36C253.521 29.4667 251.895 31.1067 249.761 32.28C247.655 33.4267 245.161 34 242.281 34H234.001V6ZM242.281 30.8C245.615 30.8 248.201 29.8267 250.041 27.88C251.881 25.9333 252.801 23.3067 252.801 20C252.801 16.6667 251.881 14.04 250.041 12.12C248.228 10.1733 245.641 9.2 242.281 9.2H237.481V30.8H242.281ZM257.268 34L267.948 6H272.068L282.708 34H278.988L276.028 26.44H263.828L260.868 34H257.268ZM264.868 23.28H274.988L269.908 9.8L264.868 23.28ZM296.596 6C298.436 6 300.063 6.36 301.476 7.08C302.89 7.77333 303.983 8.77333 304.756 10.08C305.53 11.36 305.916 12.8667 305.916 14.6C305.916 16.5467 305.37 18.24 304.276 19.68C303.21 21.0933 301.77 22.0533 299.956 22.56L306.236 34H302.316L296.516 23.24H289.356V34H285.876V6H296.596ZM289.356 20.04H296.316C298.156 20.04 299.623 19.5467 300.716 18.56C301.81 17.5733 302.356 16.2533 302.356 14.6C302.356 12.9733 301.81 11.6667 300.716 10.68C299.623 9.69333 298.17 9.2 296.356 9.2H289.356V20.04Z" fill="white" style="fill:white;fill-opacity:1;"/>
</svg>
